<svg id="Group_80" data-name="Group 80" xmlns="http://www.w3.org/2000/svg" width="32" height="32" viewBox="0 0 32 32">
  <circle id="Ellipse_4" data-name="Ellipse 4" cx="16" cy="16" r="16" fill="#3b87bc"/>
  <g id="facebook-logo" transform="translate(12 8)">
    <path id="Path_13" data-name="Path 13" d="M29.776,0,27.857,0C25.7,0,24.308,1.546,24.308,3.938V5.753H22.379a.315.315,0,0,0-.3.326V8.71a.315.315,0,0,0,.3.326h1.929v6.637a.315.315,0,0,0,.3.326h2.517a.315.315,0,0,0,.3-.326V9.036h2.256a.315.315,0,0,0,.3-.326V6.08a.341.341,0,0,0-.088-.231.291.291,0,0,0-.214-.1H27.429V4.214c0-.74.163-1.115,1.054-1.115h1.293a.315.315,0,0,0,.3-.326V.33A.315.315,0,0,0,29.776,0Z" transform="translate(-22.077)" fill="#fff"/>
  </g>
</svg>
